<?xml version="1.0" encoding="iso-8859-1"?>
<!-- Generator: Adobe Illustrator 19.0.0, SVG Export Plug-In . SVG Version: 6.00 Build 0)  -->
<svg version="1.1" id="Layer_1" xmlns="http://www.w3.org/2000/svg" xmlns:xlink="http://www.w3.org/1999/xlink" x="0px" y="0px"
	 viewBox="0 0 512 512" style="enable-background:new 0 0 512 512;" xml:space="preserve">
<path style="fill:#7A210A;" d="M408.487,239.305h-50.646V24.646v-7.95c0-9.22-7.475-16.696-16.696-16.696
	c-6.978,0-12.949,4.284-15.445,10.362c-53.988,10.695-103.227,39.088-139.775,80.89c-36.196,41.4-57.623,93.439-61.265,148.051
	H57.003l27.15-27.152c6.52-6.52,6.52-17.091,0-23.611c-6.519-6.52-17.091-6.52-23.611,0L4.89,244.194
	c-6.52,6.52-6.52,17.091,0,23.611l55.652,55.652c3.26,3.261,7.533,4.891,11.806,4.891c4.273,0,8.546-1.629,11.805-4.891
	c6.52-6.52,6.52-17.091,0-23.611l-27.15-27.15h67.659c3.642,54.613,25.07,106.652,61.265,148.051
	c36.548,41.803,85.787,70.195,139.775,80.89c2.495,6.078,8.467,10.362,15.445,10.362c9.22,0,16.696-7.475,16.696-16.696v-7.95
	V272.696h50.646c9.22,0,16.696-7.475,16.696-16.696C425.183,246.78,417.708,239.305,408.487,239.305z M324.45,467.214
	c-91.058-21.581-159.012-100.893-166.296-194.518H324.45V467.214z M324.45,239.305H158.154
	c7.285-93.625,75.238-172.937,166.296-194.518V239.305z"/>
<path style="fill:#F25243;" d="M425.183,256c0,9.22-7.475,16.696-16.696,16.696h-50.087v-33.391h50.087
	C417.708,239.305,425.183,246.78,425.183,256z M84.153,212.153c6.52-6.52,6.52-17.091,0-23.611c-6.519-6.52-17.091-6.52-23.611,0
	L4.89,244.194c-6.52,6.52-6.52,17.091,0,23.611l55.652,55.652c3.26,3.261,7.533,4.891,11.806,4.891
	c4.273,0,8.546-1.629,11.805-4.891c6.52-6.52,6.52-17.091,0-23.611l-27.15-27.15h268.006v-33.391H57.003L84.153,212.153z"/>
<path style="fill:#990A14;" d="M84.153,212.153L40.307,256l43.846,43.847c6.52,6.52,6.52,17.091,0,23.611
	c-3.259,3.26-7.532,4.89-11.805,4.89s-8.546-1.629-11.805-4.891L4.891,267.805c-6.52-6.52-6.52-17.091,0-23.611l55.652-55.652
	c6.519-6.52,17.091-6.52,23.611,0C90.674,195.062,90.674,205.634,84.153,212.153z M499.903,257.28
	c-0.425-0.428-0.859-0.844-1.299-1.25l0.029-0.03l-0.029-0.029c0.44-0.406,0.874-0.821,1.299-1.25l0,0
	c16.13-16.258,16.13-42.617,0-58.874l0,0c-16.13-16.258-42.283-16.258-58.414,0l0,0c-0.425,0.429-46.434,46.8-46.434,46.8
	c-7.317,7.375-7.317,19.332,0,26.707c0,0,46.009,46.372,46.434,46.8l0,0c16.13,16.258,42.283,16.258,58.414,0l0,0
	C516.033,299.896,516.033,273.537,499.903,257.28L499.903,257.28z"/>
<path style="fill:#B90020;" d="M499.903,254.72L499.903,254.72c-0.425,0.429-0.859,0.844-1.299,1.251l0.029,0.029H389.566
	c0-4.833,1.83-9.667,5.488-13.354c0,0,46.009-46.372,46.434-46.8l0,0c16.13-16.258,42.283-16.258,58.414,0l0,0
	C516.033,212.104,516.033,238.462,499.903,254.72z M60.543,188.543L4.891,244.195c-3.26,3.26-4.891,7.532-4.891,11.805h40.307
	l43.846-43.847c6.52-6.52,6.52-17.091,0-23.611C77.634,182.022,67.063,182.022,60.543,188.543z"/>
<path style="fill:#F25243;" d="M473.044,200.348c9.22,0,16.696,7.475,16.696,16.696c0,9.22-7.475,16.696-16.696,16.696
	s-16.696-7.475-16.696-16.696C456.348,207.823,463.824,200.348,473.044,200.348z"/>
<g>
</g>
<g>
</g>
<g>
</g>
<g>
</g>
<g>
</g>
<g>
</g>
<g>
</g>
<g>
</g>
<g>
</g>
<g>
</g>
<g>
</g>
<g>
</g>
<g>
</g>
<g>
</g>
<g>
</g>
</svg>
